<svg xmlns="http://www.w3.org/2000/svg" width="256" height="256" viewBox="0 0 100 100"><rect width="100" height="100" rx="20" fill="#5885af"></rect><path fill="#fff" d="M82.49 24.89L82.49 24.89L82.31 21.47Q82.31 19.85 84.11 19.85L84.11 19.85Q86.81 19.85 86.81 25.34Q86.81 30.83 83.30 41.27Q79.79 51.71 76.10 59.18L76.10 59.18Q71.15 69.53 65.57 74.80Q59.99 80.06 55.94 80.06L55.94 80.06Q50.81 80.06 48.43 73.85Q46.04 67.64 46.04 57.65L46.04 57.65Q46.04 54.41 46.31 51.17L46.31 51.17Q43.34 59.18 39.61 65.25Q35.87 71.33 32.45 74.30L32.45 74.30Q25.88 80.15 21.61 80.15Q17.33 80.15 15.26 75.38Q13.19 70.61 13.19 62.69L13.19 62.69Q13.19 47.03 18.86 30.83L18.86 30.83Q18.32 30.74 18.32 29.53Q18.32 28.31 19.85 25.30Q21.38 22.28 22.28 21.47L22.28 21.47Q23.99 20.12 25.52 20.12L25.52 20.12Q28.40 20.12 28.40 21.65L28.40 21.65Q28.40 22.10 28.04 22.46L28.04 22.46Q24.80 25.43 22.10 34.79Q19.40 44.15 18.50 51.98Q17.60 59.81 17.60 63.86L17.60 63.86Q17.60 76.55 23.90 76.55L23.90 76.55Q27.32 76.55 33.80 69.17L33.80 69.17Q37.04 65.48 40.69 58.64Q44.33 51.80 47.21 43.25L47.21 43.25Q48.20 35.87 49.73 30.92L49.73 30.92Q48.92 30.65 48.92 29.66L48.92 29.66Q48.92 26.87 50.95 25.21Q52.97 23.54 54.41 23.54Q55.85 23.54 56.62 24.04Q57.38 24.53 57.38 25.03Q57.38 25.52 57.02 25.88L57.02 25.88Q54.23 28.67 52.30 37.76Q50.36 46.85 50.36 56.03Q50.36 65.21 52.21 70.88Q54.05 76.55 57.83 76.55L57.83 76.55Q64.31 76.55 73.04 58.73L73.04 58.73Q77.18 50.27 79.84 40.69Q82.49 31.10 82.49 24.89Z"></path></svg>